<?xml version="1.0" encoding="utf-8"?>
<!-- Generator: Adobe Illustrator 21.0.0, SVG Export Plug-In . SVG Version: 6.00 Build 0)  -->
<svg version="1.1" id="Capa_1" xmlns="http://www.w3.org/2000/svg" xmlns:xlink="http://www.w3.org/1999/xlink" x="0px" y="0px"
	 viewBox="0 0 710 710" style="enable-background:new 0 0 710 710;" xml:space="preserve">
<g>
	<path d="M1,375c0-12.7,0-25.3,0-38c0.3-1.5,0.8-3,1-4.5C3,321.3,3.1,310,5.3,299.1c3.7-18.2,7.9-36.3,13.3-54
		c7.7-24.7,18.2-48.3,32-70.4c1.3-2.1,2.2-4.4,3.6-6.4c9.9-13.7,19.8-27.3,29.9-40.9c3.3-4.5,6.9-8.8,10.8-12.8
		c5.8-6,12-11.6,18.1-17.3c6.6-6.2,12.9-12.9,20.1-18.3C147,69,161,58.9,175.6,50.2c13.9-8.3,28.6-15.5,43.4-22
		c20.5-8.8,41.8-15.7,63.8-19.5C299.5,5.9,316.3,4.2,333,2c1.4-0.2,2.7-0.6,4-1c12.7,0,25.3,0,38,0c1.5,0.3,3,0.8,4.5,1
		C390.7,3,402,3.1,412.9,5.3c18.2,3.7,36.3,7.9,54,13.3c24.7,7.7,48.3,18.2,70.4,32c2.1,1.3,4.4,2.2,6.4,3.6
		c13.7,9.9,27.3,19.8,40.9,29.9c4.5,3.3,8.8,6.9,12.8,10.8c6,5.8,11.6,12,17.3,18.1c6.2,6.6,12.9,12.9,18.3,20.1
		c10.1,13.8,20.2,27.7,28.9,42.4c8.3,13.9,15.5,28.6,22,43.4c8.8,20.5,15.7,41.8,19.5,63.8c2.8,16.6,4.5,33.4,6.7,50.1
		c0.2,1.4,0.6,2.7,1,4c0,12.7,0,25.3,0,38c-0.3,1.5-0.8,3-1,4.5c-1.1,11.1-1.1,22.4-3.3,33.3c-3.7,18.2-7.9,36.3-13.3,54
		c-7.7,24.7-18.2,48.3-32,70.4c-1.3,2.1-2.2,4.4-3.6,6.4c-9.9,13.7-19.8,27.3-29.9,40.9c-3.3,4.5-6.9,8.8-10.8,12.8
		c-5.8,6-12,11.6-18.1,17.3c-6.6,6.2-12.9,12.9-20.1,18.3C565,643,551,653.1,536.4,661.8c-13.9,8.3-28.6,15.5-43.4,22
		c-20.5,8.8-41.8,15.7-63.8,19.5c-16.6,2.8-33.4,4.5-50.1,6.7c-1.4,0.2-2.7,0.6-4,1c-12.7,0-25.3,0-38,0c-1.5-0.3-3-0.8-4.5-1
		c-11.1-1.1-22.4-1.1-33.3-3.3c-18.2-3.7-36.3-7.9-54-13.3c-24.7-7.7-48.3-18.2-70.4-32c-2.1-1.3-4.4-2.2-6.4-3.6
		c-13.7-9.9-27.3-19.8-40.9-29.9c-4.5-3.3-8.8-6.9-12.8-10.8c-6-5.8-11.6-12-17.3-18.1c-6.2-6.6-12.9-12.9-18.3-20.1
		C69,565,58.9,551,50.2,536.4c-8.3-13.9-15.5-28.6-22-43.4c-8.8-20.5-15.7-41.8-19.5-63.8C5.9,412.5,4.2,395.7,2,379
		C1.8,377.7,1.3,376.3,1,375z M472.3,178.8c-5-4.1,2.6-4.1,2-7.3c-2.3,1.1-4.6,2.1-6.8,3.2c-0.1,0.5-0.3,1.1-0.4,1.6
		c1.7,0.8,3.5,1.5,5.2,2.3c-2,0.9-3.9,1.9-5.5,2.7c1.4,1.1,3.4,2.6,5.5,4.1c1.8,1.2,3.7,2.4,5.6,3.5c0.2-0.4,0.4-0.7,0.7-1.1
		c-3.1-2.1-8.6-3.1-3.6-8.6c0.3-0.3-0.5-1.6-0.8-2.4C473.5,177.4,472.9,178.1,472.3,178.8z M634,467c0.1-0.8,0.5-2.2,0.2-2.4
		c-4.9-3-9.9-5.8-14.9-8.6c-0.4,0.2-0.8,0.4-1.2,0.6c0.8,3,1.6,6,2.3,9c0.5,0,0.9-0.1,1.4-0.1c0.5-1,0.9-1.9,1.7-3.5
		c2.7,2.3,5.3,4.5,7.9,6.7c0.5-0.3,1.6-1.1,2.7-1.9c1,2.4,2,4.7,3,7c5.6-5.1,8.2,2.3,13,2.4c0.7-1.4,1.5-3.1,1.9-3.9
		c-2.1-2.5-3.7-4.3-5.2-6.1c-1.5,0.8-3,1.6-4.5,2.4c-1-3.3-1.9-6.2-2.7-9.1c-0.3,0.1-0.7,0.2-1,0.3c0.4,2,0.9,4,1.4,6.4
		C637.8,466.6,635.9,466.8,634,467z M317.4,197.7c-0.7,2.7-1.5,5.4-2.3,8.6c5.1-1.3,5.4-2.9,2.2-8.5c0.8-4.7,1.7-9.3,2.5-14
		c-4.3,0-8.3,0-12.9,0c0.5,6.3,1.1,12.9,1.7,19.6c0.5,0,0.9,0,1.4,0c0-5.5,0-11.1,0-16.6c0.6-0.1,1.2-0.1,1.7-0.2
		c0.4,2.2,0.6,4.5,1.2,6.7C313.6,195.4,312.9,199.2,317.4,197.7z M332.5,165L332.5,165c-3.4-4.4-9.2-5-15-1.2c2.2,0.4,4.1,0.8,6,1.1
		c0.5,0.7,0.9,1.4,1.4,2.1c-5.6-2.5-5.5,0.3-5.3,2.9c-3.3,0.8-6.2,1.4-9.2,2.1c0.1,0.5,0.2,1,0.3,1.5c11,0,22.1,0,34,0
		c-2.3-0.4-3.8-0.7-5.5-1c0.1-1.6,0.3-2.9,0.3-4C336.9,167.2,334.7,166.1,332.5,165z M620.1,491c0.7,1,1.2,2.2,2.2,2.9
		c4.3,3.3,8.7,6.4,13,9.6c0.4-0.3,0.7-0.7,1.1-1c-1.5-1.6-2.7-3.7-4.5-4.7c-3.9-2.3-6.6-6.8-11.8-6.6c-1.9-3.9-3.7-7.8-5.7-11.5
		c-0.5-0.9-1.7-1.9-2.7-2.1c-10.8-1.8-17.1-11.5-27.8-16c1.6,9,14.4,11.9,9.9,22.2c-0.4,0-1.2,0.1-2.1,0.1c0.2-5.3-1.2-7-6.4-6.8
		c1.4,3.2,2.8,6.1,4.1,9.1c0.5-0.2,0.9-0.5,1.4-0.7c-0.7-1.6-1.4-3.2-2-4.8c0.3-0.2,0.6-0.3,0.9-0.5c0.7,1.2,1.3,2.5,2,3.7
		c2.1,3.2,4.3,6.4,6.4,9.6c-1.1-0.9-2.1-1.8-3.2-2.7c0.1,0.5,0.2,1.1,0.3,1.6c-1.8,0.6-3.6,1.1-5.7,1.8c0.3-3,0.5-4.7,0.6-6.5
		c-0.4,0-0.8-0.1-1.2-0.1c-0.5,1.3-1,2.5-1.5,3.8c-2.9-1.1-5.5-2.1-8.1-3.1c-0.1,0.3-0.2,0.6-0.2,0.8c4.4,2.6,8.8,5.2,13.1,7.8
		c-4.1,6.5-4,9.4-0.2,10.5c0-2.2,0-4.6,0-8c2.5,1.7,4,2.7,5.9,4.1c0-3.8,0-7,0-10.1c0.7,1.3,1.7,2.5,1.9,3.9
		c0.5,3.9,0.6,7.8,0.8,11.7c0,0.4,0.1,0.9,0.1,1.2c-1.3-0.2-2.5-0.3-4.6-0.6c2.1,2.4,3.3,3.8,4.6,5.2c0.7-1.2,1.4-2.5,1.8-3.3
		c2.2,4.9,4.3,9.6,6.1,13.5c-1.5-0.5-4-1.5-6.3-2.3c2.9,3.2,5.6,6.3,8.3,9.3c-0.4,0.3-0.8,0.6-1.2,0.9c-0.8-0.2-1.6-0.3-3-0.6
		c3.2,2.8,5.8,5,8.6,7.4c-0.1-1.1,0.1-2.3-0.3-3.3c-0.4-1-1.6-1.6-3.4-3.3c2.8,0.8,4.1,1.2,5.5,1.5c-0.5,0.3-1,0.6-1.4,0.9
		c1.4,2.9,2.1,6.8,4.4,8.3c4.7,3.2,5.1,2.7,5.6,9.1c-2.3-5.5-5.9-9.3-11.7-9.8c3.2,3.6,6.4,7.2,9.6,10.7c0.2,0.2,0.6,0.3,0.9,0.3
		c3.4-0.4,4.1,2.2,5,4.6c0.4,1.1,1.1,2,1.7,3c0.6-0.2,1.1-0.5,1.7-0.7c-0.8-1.9-1.6-3.9-2-4.8c1.3-2.5,2.3-4.5,3.6-7
		c0.3,2.7,0.5,5,0.8,8.2c5.1-7.6,9.7-14.3,14.2-21c-1.5-0.7-2.9-0.8-3.6-1.6c-3.8-4.3-7.2-8.9-11-13.1c-6.3-6.7-9.8-15.2-14.5-22.9
		C618.6,496.6,616.5,493.6,620.1,491z M604.2,395.6c2.2-3.9,0.4-6.8-1.4-9.2c-0.6,3.4-1.1,6.5-1.8,9.6c-0.5,2.1-0.7,2.1,2.1,1.9
		c-0.5,2.7-1,5.5-1.6,8.7c-2.1-1.2-3.5-2-4.8-2.8c-1.1,2-2.1,3.7-3.1,5.4c0.4,0,0.7,0,1.1,0c0,7.6,0,15.2,0,22.8
		c-0.3,0-0.5,0.1-0.8,0.1c-0.4-1.4-0.7-2.8-1.1-4c-1.9,0.2-3.6,0.4-5.4,0.5c1.5,2,2.8,3.9,4.5,6.2c-3.3-0.4-5.3-0.6-7.1-0.8
		c1.8,5.4,3.6,9.7,4.6,14.2c0.5,2-0.6,4.4-1,6.6c-0.3,2-0.7,4-1,6.1c0.5,0.1,1,0.2,1.4,0.3c2.1-5.3,4.2-10.5,6.2-15.7
		c1.2,1.7,2.5,3.6,4.1,5.8c0.8-1.8,1.2-2.7,1.6-3.6c1.3,2.1,2.5,3.9,3.6,5.6c0.2-0.2,0.5-0.5,0.7-0.7c-0.4-1.6-0.9-3.3-1.3-4.9
		c0.4-0.2,0.8-0.4,1.2-0.5c1.3,1.8,2.5,3.6,4.4,6.2c0.7-3.2,1.3-5.9,1.8-8.4c1.6,2.4,3.2,4.7,4.7,6.9c0.8-0.1,1.5-0.2,2.3-0.4
		c-3.1-6.3-1.2-11.5,1.9-15.8c2.5,3.5,5.1,7,7.6,10.5c0.5-0.3,0.9-0.6,1.4-0.9c-1.3-2.3-2.5-4.6-4.5-8.1c3.3,0.4,5.8,0.7,8.3,1
		c-0.6-0.2-1.1-0.5-1.7-0.7c0.8-0.5,1.5-1.1,2.3-1.6c0.6,0.4,1.1,0.9,1.7,1.3c0.1,1.5,0.2,3,0.4,5.2c2.6-0.7,4.8-1.3,6.7-1.9
		c-2.6-2.2-4.5-4.3-6.9-5.7c-3.4-2-7.2-3.2-10.6-5.2c-1-0.6-2.3-2.7-1.9-3.5c2.5-5.7,5.4-11.3,8.2-16.9c0.5-0.1,1.1-0.1,1.6-0.2
		c3.2,8.6,6.4,17.2,9.8,25.7c0.6,1.6,2.4,2.8,3.8,3.9c0.4,0.3,2.1-0.3,2.1-0.6c0.1-1.5,0-3.1-0.2-4.6c-0.1-0.7-0.8-1.4-1.4-2.5
		c5-2.2,9.8-3.9,14.2-6.4c2.9-1.6,8.3-0.3,8.6-5.9c-7.8,1.6-15.2,3.2-22.6,4.6c-6,1.1-6.6,0.4-7.2-7.4c3.8,1,7.1,2,10.6,2.6
		c5.3,1,10.3-0.5,15.2-2.6c2.1-0.9,4.3-1.6,6.6-2.5c-0.6-0.5-1.2-0.9-2.5-2c7-0.5,13.2-0.9,18.9-1.3c2.5-1.2,5.1-2.5,8.3-4
		c0.8-7.2,1.8-15.5,2.9-24.6c-13.2,3.6-25.6,6.9-37.9,10.6c-6.6,2-6.5,2.3-9.7-4.4c1.8-0.7,3.6-1.4,5.4-2c0.1,0.5,0.1,1,0.2,1.5
		c8.4,2.6,16-2.9,24.1-3c-7.3-2.9-14.4-5.8-22.1-8.9c-2.5,2.2-11.9,0.1-13.1-3.9c-0.7,0.6-1.5,1.2-2.8,2.3
		c1.9-8.4,3.7-15.9,5.5-23.6c11.8,10.6,23.3,21.1,33.9,30.7c4.8-1.9,8.5-3.6,12.3-4.8c2.5-0.8,4.4-1.1,4.4-4.6
		c0-7.9,0.7-15.8,1.2-23.7c-0.5-0.4-0.9-0.9-1.4-1.3c-5.5,2.5-10.9,4.9-16.4,7.3c-4.8,2.1-9.6,4.4-14.6,6c-4.1,1.3-4.2,0.9-7-3.2
		c10.3,3.2,13.6-6.6,20.2-10.7c-2.8-0.4-5.5-0.4-8.2-0.4c-2.8-0.1-5.6-0.4-8.3-0.4c-8,0.2-9-0.3-12.8-7.1c0.2,1.7,0.5,3.5,0.7,5.2
		c-0.4,0.3-0.8,0.6-1.2,0.8c-0.7-1.1-2.1-2.2-2.1-3.3c0-5.6,0.4-11.3,0.4-16.9c0.1-10.5,0-10.4,10.5-10.9c4.4-0.2,8.7-0.8,13.1-1.2
		c0-0.2-0.1-0.4-0.1-0.6c-7.6,0-15.3,0-23.3,0c-1-7.9-2.2-16.4-3.2-24c16.3,6.2,32.8,12.5,49.6,18.9c-2.8-12.7-5.5-25-8.2-37.2
		c-14.8,4.2-28.8,8.1-43.2,12.1c-2-7.6-4.1-15.5-6.1-23.4c4.8-2.1,6.7-1.2,8.9,3.9c0.6-1.2,1.2-2.3,2.1-4.1c0.5,2,0.7,3,0.9,3.6
		c1.6-1.1,3.2-2.1,4.8-3.3c0.6,2.3,1,3.9,1.1,4.3c2.2-0.7,3.9-1.9,5.3-1.7c3.2,0.5,6.3,0.3,9.6,1.1c4.3,1.1,9.3-0.1,14.4-0.3
		c-2.9-8.7-6.1-17.9-9.4-27.7c-13.7,6.2-27.1,12.3-40.1,18.2c-3.6-7.8-7.3-15.8-11-23.6c1.5-0.5,2.9-1.1,4.3-1.4
		c1.3-0.2,3.4-0.6,3.9,0.1c2.7,3.6,4.7,2.3,7.1-1.1c0.4,2.4,0.8,4.3,1.1,6.1c0.2,0,0.4-0.1,0.6-0.1c0-1.9,0-3.7,0-5.2
		c7.4-0.6,14.4-1.2,21.4-1.7c0.2,1.5,0.3,2.7,0.4,3.2c2.8-1.5,5.5-2.9,8.3-4.4c-3.3-7.2-7.1-15.3-11-23.7
		c-7.1,4.9-13.7,9.5-20.1,13.9c-1.4-1.6-2.5-2.8-4-4.3c0.2,2.1,0.9,4.3,0.3,4.7c-4.6,3.7-9.4,7-13.8,10.3
		c-5.5-7.8-11.2-15.7-17.6-24.7c16.8-0.7,31.6-8.8,49.2-11.1c-5-8.3-9.5-15.6-14.6-24c-8.1,7.4-15.8,14.3-23.4,21.3
		c-0.9-0.8-1.7-1.5-2.8-2.5c0.1,1.7,0.7,3.3,0.2,4c-3.1,3.9-6.5,7.5-9.9,11.4c-2-2.9-3.7-5.9-6-8.4c-3-3.3-6.5-6.2-9.9-9.2
		c-3.2-2.8-3.3-5,0.4-7.3c2.2-1.3,4.9-1.9,7.4-2.7c1-0.3,2.2-0.3,3.3-0.4c0,0.3,0.1,0.6,0.1,0.9c1.6-1.4,3.2-2.8,4.6-4.1
		c1.6,0.8,2.9,1.5,4.2,2.2c0.2-0.3,0.4-0.6,0.6-0.9c-0.8-0.7-1.6-1.4-2.5-2.3c6.6-3,12.7-5.9,19-8.5c1.5-0.6,3.4-0.3,6-0.4
		c1.9-2.9,0.4-6-2.4-9.1c-9.9-11.5-19.7-23.1-29.7-34.5c-1.6-1.8-3.9-3.1-6.5-5.2c0,3.5,0.4,5.9-0.1,8c-1.1,4.4-2.7,8.6-4,12.9
		c-1.5,4.9-2.9,9.7-4.1,14.6c-0.4,1.8-0.2,3.8-0.4,6.6c4.9-4.6,8.9-8.3,12.9-12c-3.3,18.2-14.2,33.7-17.7,51.7
		c-0.1-1.2-0.2-2.5-0.4-4.3c-4.8,4.9,0.3,6.1,2.5,8.6c-4,1.9-5.6,0.3-6-3.1c-0.2-1.5,0.4-3,0.1-4.5c-0.7-3.2-2.4-3.7-4.5-2.3
		c0.8,2.1,1.8,3.4,1.8,4.7c-0.3,8.3-0.7,16.6-1.1,24.9c2-2.5,4-5.2,4.5-8.1c0.5-2.9-0.6-6.1-1-9.1c0.7-0.1,1.3-0.3,2-0.4
		c1.5,5,3,9.9,4.2,14.9c0.1,0.6-1.9,1.8-3.1,2.5c-0.6,0.4-1.5,0.3-2.2,0.5c0.1,0.4,0.1,0.9,0.2,1.3c1.7-0.2,3.4-0.3,5.3-0.5
		c-3.9,4.6-3.3,9.9,1.7,14.2c0-4.8-5.8-10.7,2.6-13.3c4.9,4,2,7.5-0.9,11.1c0.4,0.2,0.7,0.4,1.1,0.7c1.9-1.5,3.7-3,5.9-4.9
		c0.7,2.1,1.6,4.1,2,6.1c0.5,2.9,0.8,5.6,3.1,7.9c4.3,4.4,4.2,8.4,0.7,13.6c-1.1,1.5-1.5,4.9-0.6,6.1c2.6,3.3,6.1,6,10.2,9.7
		c0-2.6,0-3.6,0-4.7c1,0.9,1.7,1.9,1.7,2.9c-0.1,3.6,0.3,6.8,3.9,8.6c0.3,0.2,0.2,1.2,0.3,1.9l0.1-0.1c-1.3-0.4-2.6-0.8-4.4-1.3
		c4.2,6.8,4,8.7-1.4,12.6c1.5,1,2.8,1.9,4,2.7c0.6-2,1-3.6,1.6-5.8c1.6,1.1,2.6,1.8,3.2,2.2c-1.6,5.3-3,10.2-4.4,15
		c4.8-1.9,4.4-6.6,5.4-10.7c0.4,1.4,0.5,2.8,0.3,4.1c-0.5,3.2-1.5,6.3-1.5,9.5c0,3.7,1.4,7.4,0.9,11c-0.6,4.2-1.9,8.5-4.2,12
		c-2.3,3.5-2.9,3.1,0.9,4.4c0.2-1.2,0.5-2.4,0.7-3.7c0.2,4.6,2.2,7.7,5.7,10.5c2.4,1.9,5.1,4.7,3.1,8c-2.3-3-4.7-6.1-7.6-10
		c-0.6,3.1-1,5.2-1.5,7.3c-1.2,0.4-3.4,0.8-3.3,1.1c0.4,4.6,1.1,9.1,1.8,13.6c-1.5,0.4-3.1,0.7-4.7,1.1c2.7,7.9-0.5,17.5,9.4,22.2
		c-0.5,0.4-1.1,0.7-1.6,1.1c-3.7-2.7-7.3-5.4-10.8-8c1.2,5.7,2.5,11.5,3.8,17.4c-0.2,0-1-0.1-2.1-0.2c5,3.1,5.6,4.7,2.9,10.7
		c-0.2-3-0.4-5.2-0.7-8.5c-1.2,1.8-1.6,2.5-1.5,2.3C606.8,396,605.5,395.8,604.2,395.6z M90.3,203.8c-5.3-3-10.3-7.2-17.6-5.8
		c6.3,2,12,3.8,17.8,5.7c-2.1,0.4-4.1,1.3-6.2,1.2c-4.8-0.2-9.6-1.1-14.4-1.4c-4.3-0.3-8.6-0.1-12.9-0.1c0,0.4,0,0.9,0,1.3
		c10.2,2.1,20.9-1.2,31,2.3c0,0.5,0,1,0,1.5c-5.3,0-10.6,0-15.8,0c0,0.4,0,0.7,0,1.1c6.3,0.4,12.5,0.9,18.8,1.3c0,0.3-0.1,0.7-0.1,1
		c-2.5,0.1-5,0.2-6.8,0.3c4.2,5.4,8.5,10.5,12.1,16.1c1.7,2.6,1.1,6.6,2.7,9.2c4.9,8.1,10.2,15.7,17.4,22.2
		c4.5,4.1,7.5,10,11.2,15.2c-0.6,0.5-1.2,1-1.8,1.5c-6.6-6.5-13.2-13-19.8-19.4c-0.4,0.3-0.7,0.7-1.1,1c1.3,6.4-3.4,15.3,6.3,16.7
		c5.2,11.5,12.7,20.7,15.4,32c-5.9-8.7-11.1-17.8-16.6-26.7c-1.8-2.9-4.5-5.2-6.8-7.8c-0.4,0.4-0.8,0.7-1.2,1.1
		c6.8,12.8,18.1,22.7,23.5,37.5c-5.7-3.8-5.7-3.8-10.2-2.8c-1.4-2.2-2.4-4.8-4.2-6.7c-7.3-7.7-14.7-15.2-22.1-22.8
		c-0.4,0.3-0.7,0.6-1.1,0.9c0.6,1.2,1,2.7,1.9,3.7c5.6,5.9,11.2,11.9,17,17.6c2.7,2.6,5.8,4.8,8.7,7.2c1.1,1.5,2.2,2.9,4.3,5.6
		c-5.7-1.7-10-3.1-14.3-4.4c0.7,1.9,2,3.3,3.5,3.6c3.3,0.6,5.1,1.7,3.2,4.4c5.3,3.3,10.4,6.5,15.4,9.6c-0.3,0.5-0.5,1-0.8,1.5
		c-7.4-5.8-15.2-10.1-25.6-7.7c0.8,1.5,1.2,2.7,1.9,3.7c0.8,1.1,1.8,2,2.9,3.2c-7.9,3.3-9.9,1.8-10.5-7.8c-3.1,0-6.3,0-9.8,0
		c0.1-1.3,0.3-2.7,0.3-3.7c-8.5-3.3-16.5-6-25.3-1.9c-3.9,1.8-5.5,3.5-4.8,7.6c2,12.5,7.6,23.8,13.4,34.8c6.8,13,13.6,25.9,17,40.3
		c0.4,1.5,0.2,4-0.8,4.8c-2.9,2.6-4.5,5-1.7,8.1c-2.7,2.4-5.9,4.1-7.2,6.8c-1.3,2.7-2.7,3-5.2,3.3c-1.5,0.2-3.8,2-4,3.3
		c-1.1,6.6-4.6,9.5-10.9,8.3c-1.5-0.3-3-0.6-4.6-0.9c-0.3,0.5-0.5,1-0.8,1.4c3.5,2.7,6.9,5.4,11.2,8.7c-6,0-11.5,0-17.7,0
		c2.1,2.6,3.6,4.5,5,6.2c-1.9,2.9-3.5,5.4-5.2,8c0.4,0.4,0.7,0.8,1.1,1.2c6.6-4.6,13.1-9.1,19.7-13.7c0.3,0.3,0.7,0.7,1,1
		c-10,11.7-19.9,23.5-29.5,34.8c0.7-0.3,1.9-0.9,3.8-1.8c-1,3.6-5.1,4.8-2.7,9.2c6.6,12.2,11.9,25.1,18.6,37.3
		c6,10.9,12.8,21.3,19.6,31.7c12.9,19.8,28.9,37.2,46.2,53.2c6.1,5.6,12,11.5,18.6,16.3c13.1,9.5,26.3,19.1,40.2,27.3
		c13.9,8.2,28.5,15.7,43.4,21.9c20.7,8.6,42,15.3,64,19.9c19.8,4.2,39.9,6.2,60.1,7.2c8.2,0.4,16.6-0.3,24.8-0.9
		c11.5-0.8,23.2-1,34.4-3.2c18.5-3.7,36.9-8.3,55-13.7c20.2-6.1,39.8-14,57.9-25.2c14.1-8.7,28.3-17.3,42.1-26.4
		c5.6-3.6,10.3-8.4,16-13.1c-8.2-8.3-16.1-15.8-23.3-23.9c-4.7-5.3-8.2-11.7-12.3-17.6c-0.8-1.2-1.7-3.2-2.7-3.4
		c-5.6-0.8-5.5-5.3-6.8-9.1c-1.9-5.5-4-10.9-6.2-16.3c-0.4-1-1.3-2.4-2-2.5c-3.7-0.2-3.4-2.9-3.9-5.3c-1.6-6.8-2-14.2-5.1-20.2
		c-3.6-6.9-2.3-13.6-3.3-20.4c0.5-0.1,1-0.2,1.5-0.3c1.4,5.4,2.7,10.9,4.1,16.3c0.2,0,0.5-0.1,0.7-0.1c0-2.3,0-4.6,0-7
		c0-2.2,0-4.5,0-6.7c0.4,0,0.7-0.1,1.1-0.1c0.4,1.7,0.9,3.5,1.4,5.8c0.6-5.1-3-13.9-5.9-15.4c-2.4-1.3-4.8-2.8-7.8-4.6
		c3.3-1.9,5.4-3.1,7-4c0.4-7.1,0.7-14,1.1-20.9c0.2-2.9,0.3-5.6-3.9-5.1c-0.8,0.1-1.7-0.3-2.5-0.5c0-0.3,0-0.5,0-0.8
		c3.2-0.5,6.5-1.1,9.7-1.6c0-0.6,0-1.1-0.1-1.7c-3.6,0-7.3,0-11.6,0c0.9-2.7,1.4-4.3,1.7-5.1c2.4,0.3,4,0.5,4.5,0.5
		c1-2.8,1.7-4.5,2.3-6.2c2.2,0.9,4.3,1.9,7.8,3.4c-1.9-2.5-3-3.9-4.1-5.3c4-4.1,3-11.1-1.9-14.6c1.6-0.6,4.4-0.8,5-2.1
		c3.3-7,6.2-14.3,9.1-21.6c1.3-3.1,0-4.7-3.1-5.3c-4-0.7-7.9-1.5-11.9-2.2c1.6-1.2,3.1-1.5,4.5-1.1c6.8,1.8,13,2.6,14.4-6.8
		c0-0.3,0.4-0.5,0.6-0.8c2-4.2,4-8.5,6.1-13c-2.6-0.9-4.5-1.6-6.5-2.3c5.3,0.5,5.5-3,6.2-6.7c0.7-3.9,1.5-8.1,3.5-11.4
		c2.5-4.1,1.5-5.6-1.2-6.1c1.6-8.3,3.1-16.4,4.7-25.2c-3.8,0-6.5,0-8.4,0c1.9-1.5,5.5-2.9,5.6-4.7c0.4-5.1-0.4-10.3-1.1-15.4
		c-0.5-3.7-1.7-7-6.8-5.2c-0.7,0.2-1.7-0.4-3.3-0.9c2.2-1,3.6-1.7,5.1-2.4c-2.3-6.7-4.6-13-6.4-18.2c-2.5,0.3-4.3,0.5-6.1,0.7
		c-0.1-0.5-0.3-1-0.4-1.5c6-5.4,4.6-11.6,2.2-17.9c-0.8-2-1.4-4-2.1-6c-0.2-0.4-0.4-0.8-0.9-1.7c-0.4,1.2-0.7,2.1-1.1,3.1
		c-0.4-0.4-0.6-0.8-0.9-1.1c-2.9-2-6.1-6-8.5-5.6c-4,0.8-5.5-0.4-7.7-3.1c-1.3-1.6-3.9-2.7-6-3c-3.8-0.4-7.6-0.1-11.4,0.2
		c-4,0.3-8,0.8-11.8,1.7c-11.1,2.7-22,6-33.1,8.4c-8.5,1.8-17.5-0.9-26,2.5c-5.6,2.2-11.5,3.5-17.3,5.2c-0.3,0.1-0.6-0.1-1.2-0.1
		c0-0.7,0-1.5,0-1.8c-6,0.5-10.8,6.8-19.1,2.2c0.9,4.5,0.6,8.8,2.5,11.3c2.7,3.5,7.1,5.7,10.5,8.8c0.7,0.7,0.7,3,0.1,4.2
		c-1.7,4.2-3.8,8.2-5.7,12.2c0.3,0.2,0.6,0.4,0.9,0.6c1.6-1.4,3.3-2.7,5.3-4.4c-1.9,4.3-3.3,7.6-5.3,12.1c5-0.7,8-1.2,11.1-1.7
		c0.1,0.7,0.2,1.3,0.4,2c-3.6,1.1-7.1,2.3-10.2,3.2c1.6,0.5,3.7,1.1,5.8,1.7c-0.9,3-1.7,5.6-2.6,8.6c1.5-0.6,2.5-1,5-2
		c-1.8,2.4-2.7,3.6-3.5,4.8c1.1,1.1,2.1,2.1,3.1,3.2c-1.4,0.8-2.8,1.7-4,2.4c3.7,2.4,3.8,4.3,0.2,14.8c-0.4-0.8-0.8-1.2-1-1.8
		c-4.1-11.4-7.9-22.8-12.3-34c-1.3-3.3-5.1-5.7-6.4-9c-1.8-4.7-5.3-5.7-9.5-6.8c-5.1-1.3-9.9-3.5-15-4.8c-8.8-2.2-17.7-4.1-26.5-6.1
		c-2.8-0.6-6-0.7-8.4-2.1c-3.7-2.2-6.8-5.3-10.2-8c-3.8-3-3.5-4.2,0.5-6.8c1.8-1.2,3.7-3.6,3.8-5.6c0.1-2.6-1.6-5.3-2.5-7.9
		c-1.6-4.8-3.2-9.5-4.9-14.3c0.4-0.2,0.8-0.4,1.2-0.6c1.2,1.9,2.4,3.7,4.3,6.7c-0.4-3.7-0.7-5.9-1-8.2c0.3,0,0.6-0.1,0.9-0.1
		c1,2,1.9,3.9,2.9,5.9c0.9-5.3,1.1-10.3,0.8-15.3c-0.1-1-2.2-2.5-3.4-2.6c-1.2-0.1-3.3,1.1-3.6,2.2c-0.7,2.5-0.6,5.3-0.8,8
		c-0.3,0-0.6,0.1-0.9,0.1c-1-2.9-2-5.8-3.1-9c-3.5,1.2-7.2,1.7-9.9,3.7c-12.2,9.1-24.1,18.6-36.1,28.1c-8.4,6.7-16.8,13.5-28,14.8
		c-1.2,0.1-2.3,0.7-3.4,1.1c0.1,0.3,0.2,0.7,0.3,1c3.5-0.9,7.1-1.8,12-3c-1.5,1.3-1.8,1.7-2.3,1.8c-13.4,4.1-26.7,8.5-40.2,12
		c-9.1,2.4-18.6,3.7-27.9,4.9c-5.1,0.7-10.4,0.1-15.7,0.1c11.5-2.4,23.3-2.1,35.8-5.7c-11,0-20.7,0-30.3,0c8.2-1,16.5-0.8,24.5-2.6
		c17.3-3.8,34.4-8.4,51.6-12.9c3-0.8,6.2-1.7,8.7-3.5c10.7-7.9,21.1-16.1,31.6-24.2c7.4-5.6,14.5-11.7,22.4-16.6
		c6.9-4.3,7.3-3.8,5.2-11.8c-0.1-0.3-0.1-0.7-0.1-1c-0.1-6.7-0.4-13.3-0.4-20c0-3,0.2-4.9-3.9-5.1c-2.2-0.1-5-2-6.2-4
		c-0.6-1,1.3-4,2.6-5.8c4.6-6.8,12.6-10.8,15.5-19.2c0.4-1.1,4.3-1.9,6.2-1.5c15.4,3.8,30.8,6.6,46.7,6.4c9.2-0.2,18.5,0,28.2,0
		c0.3-0.5,1.2-1.8,2.2-3.3c0.9,2.9,0.9,5.5,2.2,7.1c5.4,6.9,11.7,12.9,20.7,14.5c10.7,1.9,21.4,4.8,32,1.7c-0.1,3-0.3,5.9-0.4,8.7
		c1.4-0.4,1.6-0.9,1.8-1.5c0.2-0.5,0.4-1,0.5-1.1c1.7,1.3,3,2.4,5.1,4.1c-1.1-2.8-2.5-4.6-2-5.6c1.8-4,4.1-7.8,6.1-11.5
		c1.3,1.6,2.9,3.7,5,6.3c-0.4-4.5-0.7-7.9-1-11.3c0.4-0.1,0.7-0.1,1.1-0.2c1.2,3.4,2.4,6.9,3.6,10.5c2.9-1.8,5.1-3.2,7.3-4.6
		c-5.3,1.7-6.3-1.9-7.6-5.4c2.4,0,4.6,0,8,0c-2.1-3.3-2.9-5.8-4.5-6.9c-4.6-3.1-9.7-5.4-14.4-8.4c-2.6-1.6-5.4-3.5-7.1-6
		c-1.4-2-1.4-5-2-7.5c-5.9,2.7-0.2,7,0.2,11.1c-11.8-8.2-27.3-10.6-33.9-4.2c11.7-4.3,20.9-0.4,29.9,4.3c6.1,3.2,10.5,8,10.4,15.2
		c-0.1,7.5-6.1,10.3-12,11.3c-6.2,1.1-13.1,1.5-19.1,0c-11.7-2.9-22.5-8-26.4-21.3c-1.2-4.1,0.9-6.4,3.3-8
		c9.2-6.3,19.5-8.8,30.5-7.3c4.8,0.7,9.2,0.7,13.5-1.8c3.9-2.4,7.9-4.6,11.8-7c0.2-2,0.9-3.2,1.9-4c2.2-1.6,4.8-2.7,6.9-4.4
		c2.3-1.8,4-4.7,6.5-6.1c8.2-4.7,13.9-13.4,23.8-15.6c0.6-0.1,1-0.8,1.5-1.3c11.6-9.6,24.3-17.1,38.8-21.5c4.4-1.3,8.5-3.6,12.9-5.5
		C516,48.6,467,27.1,420.4,18c-45-8.8-89.3-7.7-134.3,0.8c-31.8,6-115,40.4-122.2,53.3c7.6-0.7,15.2-1.5,22.8-1.9
		c2-0.1,4.2,1,6.2,1.6c-0.1,0.5-0.2,1-0.3,1.5c-1.1,0.4-2.2,0.7-3.3,1.1c0,0.4,0.1,0.8,0.1,1.2c2.9,0,5.8,0,8.6,0
		c-0.6,0.7-1.3,1.5-2.4,2.7c6.2,2.8,11.9,5.3,17.6,7.9c3.2,1.5,6.6,3.2,5.6,7.5c-0.4,1.9-2.3,3.5-3.7,5.5c-4.6-2.5-9.2-5-14.2-7.7
		c0.6,1.5,0.9,2.5,1.1,3c-3.3,0.4-6.6,0.3-9.5,1.2c-2,0.6-5.3,3-5.1,3.8c1.1,4.7-1.3,7.3-4.7,9.7c4,2.2,6.2,9.2,5.1,13.5
		c-0.4,1.6,0.2,3.5,0.3,5.3c-0.2,2.9-1.1,5.8-1.9,8.7c-0.3,0.9-0.1,2-0.6,2.8c-3.5,5.8-11.1,9.8-8.4,18.4c0.1,0.2-0.2,0.6-0.4,0.9
		c-1.9,4.4-3.9,8.7-5.9,13.1c0.3,0.2,0.6,0.4,0.9,0.6c1.1-0.7,2.2-1.5,3.4-2.2c-1.2,9.8-4.2,19.3-1.3,29c2.2-0.2,3.6-0.4,5.8-0.6
		c-1.5,8.5-2.9,16.4-4.1,23.8c2,0.7,5.4,1.2,5.4,2.1c0.5,4.3,2.9,4.1,5.5,4c1.7,2.3,3.9,5.6,6,5.5c2.8-0.1,6.1-1.6,6.5-6.2
		c0.3-5.2,3.4-7.4,7.2-7c-0.8,3.5-2.7,7.2-2.2,10.6c0.9,5.8-1.4,10-4.7,14.1c-5,6-7.2,6.2-12.8,1.5c1.7-2.2,3.4-4.3,5.4-6.9
		c-3.2,0.7-5.4,1.1-7.5,1.6c-10.1,2.8-19.6-1.9-29.4-2.3c-2.6-0.1-5.9-2.6-7.4-5c-3.3-4.9-5.6-10.3-8.5-15.9c-0.4,1.2-0.8,2.2-1.4,4
		c-3-6.1-5.7-2.8-7.6,0c-2.7,4.1-5.7,8.3-2.3,13.9c1.9,3.1,2.5,6.9,3.7,10.3c1.7,4.6,3.4,9.1,5.3,14.2c1.8-1.4,2.7-2.1,4.4-3.5
		c-0.1,5.8,2.3,9.5,7,11.5c3.7,1.6,3.1,4.5,1.7,7.1c-0.9,1.5-2.9,2.3-5.5,4.2c-2.4,16.8-5,35.2-7.8,54.3
		c4.9-10.2,9.3-19.6,13.8-29.1c-0.9,0.2-1.6,0.3-2.6,0.5c0.3-6.9,0.6-13.6,0.9-20.4c0.6,0,1.1-0.1,1.7-0.1c1.2,9.3,2.4,18.7,3.7,28
		c0.1,1.1,0.2,2.3,0.6,3.3c3.2,8.4,0.2,17.3-7.3,22.3c-1.2,0.8-2.2,1.7-3.3,2.5c0.2,0.4,0.3,0.9,0.5,1.3c2.3-0.4,4.6-0.8,6.9-1.3
		c0.2,0.4,0.4,0.7,0.6,1.1c-2.1,1.6-4.3,3.2-6.3,4.7c2.2,1.1,4.1,2,6,3c0,0.5,0,1,0,1.5c-4.6,1.7-9.1,3.4-14.1,5.3
		c6.2,17.6,14.6,34.7,18,53.5c-5.4-4.8-8.5-10.9-10.4-17.8c-3.6-13-7.5-25.9-10.8-38.9c-0.8-3.3,0.2-7,0.4-10.6
		c0.1-2.7,0.9-5.5,0.3-8c-2.2-8.7-3.5-17.4-3.4-26.6c0.1-12.9,3.9-26.3-3.7-38.6c-0.4-0.6-0.2-1.6-0.4-2.4
		c-1.4-6.4-2.7-12.9-4.5-19.3c-1.2-4.3-2.9-8.5-4.9-12.5c-1.9-4-4.5-7.6-6.8-11.4c-0.8-1.4-1.7-2.7-2.2-4.2
		c-0.6-1.6-0.4-4.2-1.5-4.9c-4.6-3.1-7.5-7.3-9.2-12.4c-0.2-0.5-0.9-0.8-1.6-1.4c0.4,1.6,0.7,2.7,1.1,4
		C95.4,204.9,92.8,204.4,90.3,203.8z M482.1,160.9c1-0.1,2.7,0,4.3-0.5c12.4-3.7,24.7-7.8,37.3-11.1c4-1,5.8-2.7,6.9-6.4
		c3-10.1,6.5-20,9.6-29.7c-3.4-2.6-6.9-5.3-11.1-8.4c2.1-1,3.6-1.6,5.8-2.7c-0.4,1.9-0.6,2.9-0.8,3.9c6.3,2.3,10,0.6,10.5-6.3
		c0-0.6,0.9-1,1.1-1.7c1.2-3.5,2.3-7,3.4-10.5c-0.4-0.3-0.8-0.6-1.2-0.9c-4.7,2.1-9.4,4.2-12.5,5.5c-5.3,4.1-9.4,7.3-13.7,10.7
		c-1.6-0.7-3.4-1.5-5.9-2.6c0.5,2.1,0.9,3.3,1.4,5.4c-2.5-0.8-4.3-1.4-6-2c-0.9,2.2-1.9,4.4-3,6.9c-0.7-0.8-1.4-1.6-2.6-2.9
		c-1.4,4.5-2.6,8.3-3.9,12.7c-2.4-1.6-4.2-2.8-6.1-4.1c-0.2,0.2-0.4,0.4-0.7,0.7c1.6,2.7,3.2,5.3,5.1,8.5c-2.5-0.6-4.5-1.1-7.1-1.7
		c1.5,1.9,2.4,3.2,3.4,4.5c-1.9,0.8-3.2,0.2-4.2,0.4c-3.7,0.9-1.8,2.6-0.3,3.9c-2.4,1.7-4.6,4.6-6.9,4.7c-2.4,0.1-4.9-2.5-7.3-3.9
		c-0.1,0.3-0.3,0.6-0.4,0.9c2,2.6,4,5.1,6,7.7c-0.3,0.3-0.5,0.5-0.8,0.8c-1.1-0.7-2.3-1.3-3.4-2c-0.3,0.4-0.5,0.7-0.8,1.1
		c1.3,1,2.6,1.9,4.8,3.6c-3.8,0.4-6.7,0.8-10,1.1c-1.1-1-2.8-2.5-4.4-3.9c-0.8,3.1,0.4,5.9-0.5,7.8c-2.2,4.5-0.1,3.1,2.3,2.3
		c0.7-0.2,1.7,0.1,2.4,0.4c0.3,0.2,0.6,1.2,0.4,1.6c-3.3,5-0.7,8,3.9,10.8C478.4,164.3,480,162.8,482.1,160.9z M591.1,104.1
		c-8.6-7-17.1-14.3-26-20.9c-3.7-2.7-8.9,0.1-9.4,4.7c-0.6,5.2-2.8,9.1-6.9,12.3c-0.4,0.3-0.5,1-1.2,2.5c1.9-1.4,2.9-2.1,4.7-3.4
		c0.9,3.1,3,6.1,2.2,8c-2.9,6.7-0.1,13.5-1.3,20.2c-1.3,7.2-1,14.6-1.5,21.9c-0.3,0-0.7,0.1-1,0.1c-0.4-1.2-0.8-2.3-0.9-2.7
		c-5,0-9.7,0-14.5,0c0,0.2,0,0.4,0,0.6c3.1,0.6,6.1,1.2,9.2,1.8c-2.2,1.8-4,2.6-5.8,3.3c-9.4,3.8-18.5,8.3-28.2,11.2
		c-5.4,1.6-7.9,4.3-9.2,9.7c16.1,1,28.3-8.1,41.3-14.8c0.3,0.4,0.5,0.7,0.8,1.1c-1.8,2.2-3.5,4.4-5.8,7.2c2.4-1,4-1.8,6.2-2.8
		c0,1.8,0,3,0,3.7c2.2-3.4,4.6-7.1,7.1-10.8c0.4,0.3,0.7,0.5,1.1,0.8c-0.6,2.6-1.1,5.3-1.7,7.9c0.6,0.2,1.2,0.4,1.8,0.6
		C565,145.8,577.8,125.5,591.1,104.1z M115.9,110.5c-28.2,26.5-50.1,57.3-67,91.9c2.6-0.7,5.5-1.4,6.9-3.2c3.9-4.9,8.8-6.3,14.6-5.7
		c2.7,0.3,4.2-0.3,4.7-3.5c0.9-4.9,3-5.7,7.9-4.5c1.8,0.4,4.1,0.1,5.9-0.6c4.3-1.8,8.3-1.9,12.2,1c1.5,1.1,3.2,1.8,5.9,3.4
		c-1.6-3.1-3.2-4.8-3.3-6.6c-0.3-2.9,0.4-5.9,0.6-9c-2.1,0-3.6,0-4.8,0C102.8,152,107,130.7,115.9,110.5z M146.5,179.2
		c1.6-0.8,3.3-1.5,4.6-2.6c1.1-0.9,2.7-2.5,2.5-3.4c-1.1-4.3,2.2-5.2,5.3-7.8c-0.2,3.2-0.4,5.4-0.5,7.5c1.7-2,3-4.3,2.9-6.5
		c0-4.1,0.8-7.7,1.9-11.6c1-3.4-1.8-7.8-2.6-11.9c-1.1-5.4-4.3-9.2-9.3-10.8c-5.2-1.6-10.2,0.3-13.5,4.4c-2.4,3-4.4,6.8-4.9,10.6
		c-0.7,4.8,0,9.9,0.3,14.9c0.4,6.6-5.8,14.7-12.4,15.7c-4,0.6-6.1,2.5-4.2,6.8c0.3,0.7,0.4,1.5,0.6,2.7c-2.3,0.7-4.4,1.3-6.5,1.9
		c1.1,1.5,2.7,2.7,3.6,2.3c3.3-1.2,6.5-3,10.2-4.8c7,5.2,10.4,2.6,15-13.5c1.8,1,3.5,1.9,6,3.3c-6.2,1.5-7.5,6.6-4.7,14.3
		C147.5,189.8,149.7,185.5,146.5,179.2z M318.6,211.1c1,0.5,1.2,0.8,1.5,0.8c13.2,1,26.4,2,39.6,3c3,0.2,4.8-0.4,4.2-4.1
		c-0.3-1.9,0.2-4,0.1-5.9c-0.2-6.3-0.5-12.5-0.7-18.8c-0.3,0-0.7,0-1,0.1c-3.8,8.6-7.6,17.2-11.7,26.5c-2.6-7.4-2.2-13.3,0.2-20.3
		c0.7-2.1,0.9-5.1-0.2-6.7c-0.8-1.3-3.9-1.1-4.7-1.3c-4.3,9.2-8.2,17.3-12,25.4c-0.4-0.1-0.9-0.3-1.3-0.4c-0.2-4.1-0.4-8.2-0.6-12.3
		c-0.4,0-0.8-0.1-1.1-0.1c-1.3,2.7-2.5,5.4-4.4,9.4c0-5.1,0-8.7,0-12.3c0-3.6,0-7.1,0-10.7c-1.4,2.4-2.6,5.2-2.1,7.6
		C326.1,198.7,323.9,205.2,318.6,211.1z M327.9,227.9c1.7,2.4,3.5,4.9,5.2,7.3c0.3-0.1,0.7-0.3,1-0.4c0.3-4.9,0.5-9.9,0.8-15.8
		c2.6,3.8,4.6,6.6,7,10c0.4-2.1,0.7-3.2,1.1-5c2.4,3.8,4.4,6.9,6.4,10.1c1.1-3.7,1.2-7,1.5-10.3c0.3-3-0.7-4.9-3.8-5.2
		c-6-0.6-12.1-1.3-18.1-1.9c-8.4-0.8-8.8-0.1-6.1,7.7c0.9,2.5,1.3,5.1,1.9,7.7c-3.3-3.8-6.2-7-8.9-10.2c0.7,8.8,1.3,17.3,2,26.1
		C328,244,327.3,235.8,327.9,227.9z M425,145.3c-10.6-0.8-17.5,3.6-23,10.8c5.6,8.2,8.5,9.6,18,5.4
		C426.4,158.6,423.4,151.3,425,145.3z M432.2,160.4c-0.2,1.6-0.7,3.2-0.5,4.6c0.2,1.3,1.5,3.6,1.9,3.5c3.1-0.7,6.9-1.2,9-3.2
		c1.5-1.4,2-6,0.8-7.8c-2.3-3.6-5.8-6.8-9.3-9.4c-5.1-3.7-6.5-2.8-7.4,3.3c-0.2,1.6-1,3.2-1,4.9c0,2,0.5,3.9,0.8,5.9
		C428.1,161.6,429.8,161.1,432.2,160.4z M694,341.5c6.8-3.4,6.8-3.4,5.1-11.8c-2.8,1.1-5.6,2-8.1,3.3c-4.6,2.4-8.6,3.1-13.3-0.4
		c-6.8-5.1-14-9.5-21.1-14.1c-1.4-0.9-2.8-1.7-4.3-2.6c-0.4,0.5-0.8,1.1-1.1,1.6c3.7,3.2,7.3,6.6,11.2,9.5c2.4,1.8,5.4,2.8,8.2,4.2
		c1.4,0.7,2.7,1.5,4,2.3c4.6,2.9,11,3.7,12.1,8.7c3.4,1.5,5.8,2.7,9.2,4.2C695.1,344.2,694.5,342.9,694,341.5z M555.5,340.5
		c0.8,0.3,1.5,0.6,2.3,0.9c2.4-2.2,5.5-4,6.9-6.7c1.4-2.5,1-6,1.2-9.1c0.3-4.3,0.4-8.5,0.7-13.5c-1.7,1.4-2.6,2.5-3,2.4
		c-4.2-1.3-5.3,1.8-6,4.4c-1.1,3.8-1.7,7.7-2,11.6C555.2,333.8,555.5,337.2,555.5,340.5z M449.8,195.5c-1.4,2.7-2.6,5-3.8,7.3
		c3.2,1.7,7.3-6.8,10.5,0.2c-0.5,3.4-2.1,7-1.3,10c0.9,3.8,3.7,7.1,5.7,10.6c0.5-0.3,1-0.5,1.5-0.8c-0.9-1.8-1.6-3.7-2.8-5.2
		c-2.1-2.7-1.6-15.3,1.1-17.4c0.5-0.4,1.6-0.7,2.1-0.4c0.5,0.3,1,1.8,0.8,2c-3.6,3.8,0.1,5.2,2.1,7.3c1.1,1.2,1.4,3.1,2,4.7
		c0.3,1,0.5,2,0.7,3c0.4-0.1,0.9-0.2,1.3-0.3c0-4.2,0.9-8.6-0.3-12.4c-1-3.4-4.4-6.1-6.6-8.9c-1.6,2.2-1.6,2.2-9.8-0.2
		c-0.4,0.9-0.9,1.9-1.3,2.8C450.9,196.9,450.3,196.1,449.8,195.5z M548.5,368c0.2,0.4,0.4,0.8,0.6,1.2c4-2.1,10.3-3.4,11.6-6.6
		c2.5-6.3,6.9-13.5,0.8-22.3c-2.2,5.1-3.8,9.3-5.7,13.2C553.5,358.3,554.3,364.8,548.5,368z M392.9,204.4c0.5-0.1,0.9-0.1,1.4-0.2
		c0.5,1.5,0.9,3,1.5,4.6c0-5.6,0-11,0-17.1c-5.9,2-1.1,6.8-3.5,9.2c-6.5,1.3-5.9,7.5-8.4,11.7c2,1.4,3.5,2.8,5.2,3.6
		c1.4,0.6,3.3,0.8,4.7,0.3c0.6-0.2,0.8-2.6,0.7-3.9C394.2,209.8,393.5,207.1,392.9,204.4z M374.5,197c-0.3,0.4-0.7,0.8-1,1.4
		c-1.9,3.9-3.8,7.8-5.6,11.6c-1.8,3.8-1,5.2,3.3,5.8c3.6,0.5,7.1,1.2,10.2,1.7C379.3,211.3,376.9,204.3,374.5,197z M569.5,590.6
		c-5,3.7-5,3.7-0.8,8.4c3,3.5,6,7.1,9.3,10.3c1.8,1.7,4.4,2.5,6.6,3.7c-0.9-2.3-1.5-4.8-2.9-6.7
		C577.8,600.8,573.6,595.8,569.5,590.6z M375.9,258.4c0-0.4,0.1-0.9,0.1-1.3c-4.4-1.5-8.8-3.1-13.3-4.6c-0.4,6.1,1.6,8.1,7.1,7.9
		c3.5-0.1,4.9,6.7,2.3,9.8c2.2,3.1,6.6,4.3,8.7,2.2c-0.3-1-0.6-2.2-1-3.5c-0.4,0.8-0.8,1.5-0.9,1.8c-1.4-1.9-2.6-3.7-4.5-6.3
		c2.6-0.8,4.9-1.5,7.2-2.2c-1.6-3.1-1.6-3-5.3-1.8c-0.9,0.3-2.3-0.6-3.4-1.1c-0.1,0,0-0.5,0-0.7
		C373.9,258.6,374.9,258.5,375.9,258.4z M659.6,511.9c1.7-1.2,3.3-1.7,3.9-2.8c1.3-2.4,5.1-5.4,2.1-7.7c-3.8-2.9-8.9-4.1-14.7-6.6
		c0.8,2.9,1,5.5,1.7,5.7c5,1,3.5,6,6.1,9.1c0.4-1.7,0.8-3.1,1.1-4.4c0.5,0.1,1.1,0.2,1.6,0.4C660.8,507.4,660.3,509.4,659.6,511.9z
		 M495.9,188c-0.4-0.5-0.8-1.1-1.2-1.6c-2,1.6-4.4,2.8-5.9,4.8c-1.7,2.2-2.6,5.1-3.9,7.7c-1-0.9-1.7-1.5-2-1.7
		c-1.9,1.5-3.8,2.5-4.9,4.1c-1.1,1.5-0.6,4.4-1.9,5.4c-3.2,2.7-0.1,2.6,1.4,3.5c0.3-2.3,0.7-4.7,1-6.9c1.4,2.2,2.6,4.1,3.7,6
		c0.6-0.3,1.2-0.6,1.8-0.9c-0.5-1.3-1.1-2.7-2-4.8c2.3-2.4,5.7-5.9,8.5-8.9C492.8,191.9,494.4,189.9,495.9,188z M409,204.8
		c-1.8,0-3.3-0.4-4,0.1c-1.3,1-2.5,2.5-3.1,4c-0.4,0.9,0.2,3.1,0.9,3.4c1.2,0.4,3,0.2,4-0.5c2.9-2.2,6.3-4.2,5.1-8.9
		c-0.4-1.7,0-3.6-0.3-5.3c-0.2-1-1.1-1.9-1.6-2.8c-0.7,0.9-1.9,1.8-1.9,2.7C408,199.7,408.6,201.9,409,204.8z M547.5,396.6
		c-0.4-0.5-0.8-1-1.3-1.5c-1.5,1.3-3.6,2.3-4.5,4c-3.3,6.3-6.2,12.8-9.1,19.3c-0.4,1-0.4,2.1-0.8,3.8c2.4-0.7,4.3-1.2,6.1-1.6
		c-0.4-0.3-0.7-0.6-1.1-0.9c0.8-1.9,1.5-3.8,2.3-5.8c0.2-0.6,0.7-1.1,0.7-1.7C540.5,406.1,542,400.4,547.5,396.6z M482.1,105.8
		c0.8,2.3,1.4,4,2,5.6c-3,1.4-3,1.4-4.2,11.1C493.4,114.3,490.5,110.8,482.1,105.8z M569,445.1c1.1-4.3,3.5-5.3,7-4.8
		c1,0.1,2.4-0.5,3.3-1.3c0.5-0.4,0.7-2.3,0.3-2.5c-0.8-0.5-2-0.5-3-0.6c-1,0-2.1,0.5-2.9,0.2c-4.9-2.2-6.8,0.9-8.6,4.6
		C566.4,442.2,567.5,443.4,569,445.1z M563.7,445.1c1.7-13.7,1.7-13.7,0.3-14.9c0.1,1.7,0.2,3.8,0.4,6.5c-6.4-4-6.8-3.9-8.7,1.2
		C558.1,440.1,560.6,442.3,563.7,445.1z M344.6,244.3c-0.2-0.8-0.5-1.6-0.7-2.4c-2.6,0.9-5.2,1.8-7.7,2.7c-1.6,0.6-3.3,2-4.8,1.8
		c-5.3-0.4-9.2,1.4-12.4,5.7C327.7,249.5,336.2,246.9,344.6,244.3z M541,260c0.7,0.1,1.4,0.1,2,0.2c0.8-2.4,2.9-5.4,2.2-7.1
		c-1-2.6-4.1-4.3-6.3-6.4c-0.5,0.4-1.1,0.8-1.6,1.2C538.6,251.9,539.8,256,541,260z M528.7,471c4.7-3.2,6.8-14.1,4.2-18.6
		C526.8,457.7,531.7,464.5,528.7,471z M629.4,485.7c-0.3,0.5-0.6,1-0.9,1.5c1.9,1.4,3.9,2.8,5.8,4.3c1.6,1.2,3.2,2.5,4.8,3.8
		c0.5-0.6,1.1-1.4,1.7-2.2c1,1.5,1.7,2.6,2.5,3.8c0.5-0.1,0.9-0.1,1.4-0.2c0-1.5,0.5-4.2-0.1-4.5
		C639.7,489.7,634.5,487.7,629.4,485.7z M653.2,521c-1-3.6-17.5-10.5-26.2-10C635.7,514.3,644.3,517.6,653.2,521z M357.9,220.7
		c2.6,4.3,5,8.2,7.4,12.1c0.6-0.2,1.2-0.4,1.8-0.7c-0.4-2.2-1.1-4.5-1-6.7C366.1,219.9,363.5,218.8,357.9,220.7z M541.4,393.7
		c6.1,0.3,9.3-1.3,9.4-6.8c-1.3-0.9-2.6-1.8-4.4-3C544.7,387.1,543.2,390.1,541.4,393.7z M592.9,228c-0.7-0.4-1.5-0.9-2.2-1.3
		c-0.8,1.9-1.8,3.8-2.5,5.7c-0.5,1.2-0.5,2.6-1.1,3.7c-1.9,3.7-3.9,7.3-5.8,10.9c0.6,0.3,1.3,0.6,1.9,1
		C586.5,241.3,589.7,234.6,592.9,228z M398.6,175.8c-8.5,3-12.1,1.3-11.6-4.4c-1,1.8-2.3,4.9-1.7,5.3c2,1.4,4.6,2,7,2.4
		c1.7,0.2,3.5-0.6,5.5-1c1.5-4.2,1.2-4.8-3.6-6.2c-0.4,0.4-0.7,0.7-1.1,1.1C394.7,173.8,396.2,174.6,398.6,175.8z M506.1,181
		c1,5.2,2,10.2,2.9,15.1c0.5-0.1,1.1-0.1,1.6-0.2c0.8-4.9-3.7-10.5,2.8-15C509.9,181,507.9,181,506.1,181z M549.2,169.6
		c-1.8,3.2-3.2,5.8-5.3,9.6c5-3.6,8.8-6.4,12.7-9.3c-2.6-0.9-5.5-1.9-9.6-3.2C548.5,168.7,549.1,169.5,549.2,169.6z M434.8,215.4
		c0.3-0.4,0.5-0.8,0.8-1.1c-1-1.7-1.9-3.5-2.9-5.2c0.4-0.2,0.8-0.4,1.1-0.6c0.8,0.5,1.6,0.9,2.3,1.4c0.3-2.4,0.5-4.3,0.7-6.3
		c-2.2,0-8,4.7-7.2,6.5C430.6,212.2,433,213.7,434.8,215.4z M152.9,319.3c-2.6,5.5-5.2,11.1-7.8,16.6
		C150.2,331.5,153.8,326.4,152.9,319.3z M556.5,300.2c0.5,5.4,0.8,9.5,1.2,13.7c1.4-1.5,4.9-3.7,4.7-5.3
		C562,305.9,559.1,303.6,556.5,300.2z M596.8,385.2c-5,1.8-5,5.4-4.9,8.9c0.1,2.9,5.5,7.5,9.1,7.7
		C596.8,396.9,589,393.2,596.8,385.2z M378.6,189.4c0,5,0,9.9,0,14.9c0.5,0,0.9,0,1.4,0C378.8,199.3,382.9,194.1,378.6,189.4z
		 M535,424.3c-0.6,0.2-1.2,0.5-1.8,0.7c-0.1,2.9-0.3,5.7-0.4,8.6c0.5,0.2,1.1,0.4,1.6,0.5c1.2-2.2,2.7-4.3,3.3-6.6
		C537.9,426.7,536,425.3,535,424.3z M420.5,188.9c1.1-2.8,2.1-5.4,3.2-8.1c-0.5-0.4-1-0.8-1.5-1.1c-0.6,1-1.1,2.1-1.6,3.1
		c-0.6-1.1-1.2-2.2-2.2-4.1c-0.7,3.3-1.1,5.3-1.6,7.3c0.3-0.2,0.7-0.4,1-0.6C418.5,186.4,419.2,187.4,420.5,188.9z M558.6,284.8
		c-5.2,3-5.5,5.8-1.2,12.2C557.8,292.5,558.2,288.8,558.6,284.8z M541,449.5c-0.1,0.4-0.1,0.9-0.2,1.3c12.3,2.8,12.3,2.8,14.6,1.3
		C550.4,451.3,545.7,450.4,541,449.5z M88,298c0.4-0.5,0.8-1,1.2-1.5c-4.1-3.5-8.3-6.9-12.4-10.4c-0.3,0.3-0.5,0.6-0.8,0.9
		C80,290.7,84,294.4,88,298z M310.2,161.1c-6.1,2.5,0.1,10.8-6.7,12.6C308,173.6,310.2,169.2,310.2,161.1z M491,174.8
		c-3.7,7.1-3.7,7.5,0,12.2C491,182.3,491,179,491,174.8z M529.5,530.8c2,5.4,0.4,13,7.2,15.4C534.5,541.3,532,536.1,529.5,530.8z
		 M360.1,176.6c-7.5-5.8-7.5-5.8-9.6-1.5C353.6,175.6,356.6,176,360.1,176.6z M597.5,238.2c-5.4,8.1-5.4,8.3-3.1,10.4
		c1.1-1.1,2.2-2.1,3.8-3.7C598,243.8,597.8,241.7,597.5,238.2z M359.3,258.4c1.3,4.2,2.3,7.4,3.4,11.2c1.2-2.3,2.2-4.3,3-5.8
		C363.7,262.1,362,260.7,359.3,258.4z M540.3,435.1c-0.9,0.3-1.8,0.6-2.7,0.9c0.9,2.5,1.8,5,2.8,7.5c0.8-0.3,1.7-0.6,2.5-0.9
		C542,440.1,541.1,437.6,540.3,435.1z M395.9,182.9c4.7,4.3,7.1,4.1,11.8-0.5c-1.9,0.5-3.7,1.8-5.5,1.9
		C400.2,184.4,398.1,183.4,395.9,182.9z M601.4,357c2.9-5.5,1.2-9.1-1.8-13.2C600.3,348.3,600.8,352.2,601.4,357z M598.4,523.1
		c0.3-0.6,0.7-1.2,1-1.8c-3.2-1.7-6.5-3.4-9.7-5.1c-0.3,0.5-0.6,1-0.9,1.5C592,519.6,595.2,521.3,598.4,523.1z M587.5,421.8
		c-2.3-0.5-4.2-0.9-6.6-1.4c0.8,3.1,1.4,5.7,2.1,8.2c0.5-0.1,0.9-0.3,1.4-0.4c-0.4-1.7-0.9-3.3-1.3-5c0.3-0.1,0.6-0.2,0.8-0.3
		c0.8,1,1.6,2,2.7,3.3C586.9,424.5,587.1,423.4,587.5,421.8z M391.7,275.7c-2.7-0.6-4.4-1-5.7-1.4c0,2.3,0,4.5,0,7.6
		C388.1,279.7,389.6,278.1,391.7,275.7z M568.1,454.8c-1.7-0.4-3.8-0.9-6.4-1.5c1.1,3,1.9,5.2,2.5,6.8
		C565.4,458.4,566.6,456.8,568.1,454.8z"/>
	<path d="M332.5,165c0.5,1.2,1,2.3,1.5,3.5c-0.3,0.3-0.7,0.5-1,0.8c-2.4-1.2-4.9-2.3-7.3-3.5c0.2-0.7,0.4-1.4,0.6-2.1
		C328.4,164.1,330.4,164.5,332.5,165C332.4,164.9,332.5,165,332.5,165z"/>
	<path d="M232.4,610.4c6.3,1.4,12,2.5,17.6,3.9c0.8,0.2,1.4,1.7,2,2.6c0.6,1,0.8,2.6,1.5,3c6.8,3.1,4,7.7,2.1,12.1
		c-1.5,3.5-3.4,6.9-4.9,10.4c-0.4,0.9-0.1,2.1-0.1,3.2c0.5,0.3,1.1,0.5,1.6,0.8c3.2-5.1,6.4-10.2,9.6-15.4c0.4,0.2,0.7,0.3,1.1,0.5
		c-2.2,5.1-3.7,10.7-6.6,15.3c-3.4,5.4-7.3,10.8-12.2,14.8c-4.2,3.5-9.7,5.8-15,7.2c-4,1.1-4.3-2.9-3.4-5.7c0.8-2.6,1.3-4.4-0.9-6.7
		c-0.9-1-0.2-3.6-0.1-5.5c0.1-2.8,1-5.8,0.4-8.4c-1.6-7.3-5.2-13.5-10.6-18.8c-3.8-3.8-6.4-8.4-6.7-14.1c-0.1-2.7-1-5.5-1.6-8.6
		c-5.8,2.1-6.9-1.2-8.7-5.3c-2-4.9-5.2-9.4-8.6-13.6c-7.8-9.5-15.9-18.8-24.1-28c-6.4-7.2-13.4-13.8-19.7-21.1
		c-11.6-13.5-20.4-28.7-26.7-45.4c-0.2-0.4-0.1-1-0.3-2.6c1.1,1.6,1.7,2.4,2.2,3.2c0.5,0.8,0.8,1.8,1.2,2.7c0.4-0.1,0.8-0.2,1.2-0.3
		c-0.4-1.9-0.9-3.8-1-4.5c1.9-3,5.1-6.6,4.5-7.6c-1.9-3-0.9-8.8-7.9-8.2c-3.1,0.3-7.6-3.9-9.6-7.1c-3.2-5-4.8-11-7.6-17.7
		c3.8,0.9,6.3,2,8.6,1.9c1.5-0.1,3.8-1.9,4.1-3.3c0.5-2.3,1.4-5.9-2.7-6.3c-7.7-0.7-7.7-0.5-10.6-10.5c2.4,1.3,4.1,1.9,5.4,2.9
		c1,0.8,1.3,2.5,2.3,3.1c1.1,0.7,2.8,0.9,4.1,0.6c0.7-0.2,1.7-2.4,1.5-2.6c-0.9-0.9-2.2-1.5-3.5-2.1c-0.5-0.2-1.2,0-1.6,0
		c2.2-12.4,4.2-24.5,6.4-36.7c0.1,0,0.8,0.1,0.9,0.4c2.6,5.4,5.7,10.7,7.7,16.4c2.7,7.6,4.7,15.4,6.9,23.2c0.7,2.5,1.2,5,1.9,7.9
		c-1.5,0-3.4-0.3-5.3,0.1c-1.1,0.2-1.9,1.4-2.9,2.1c0.7,0.9,1.4,2.5,2.2,2.7c3.4,0.6,4.6,3.1,6.4,5.5c3.6,4.8,8.1,8.9,12,13.4
		c2.8,3.3,4.9,7.1,7.7,10.3c5.3,6.2,11.1,12,16.2,18.3c3.6,4.4,7.1,9,6.9,15.5c-0.1,2.5,2.1,5.2,3.6,7.5
		c5.8,9.2,11.4,18.5,14.3,29.2c0.2,0.7,0.8,1.4,1.6,2.7c-4.8,0.7-5.4-3.2-7-5.3c-2.1-2.8-3.7-6.1-5.4-9.2c-4.6-8.6-9.2-17.3-13.8-26
		c-4.3-8.1-8.3-16.4-15.8-22.1c-1.2-1-3.1-1.1-4.7-1.6c0,1.8-0.5,4,0.2,5.4c3.9,7.5,8.2,14.8,12,22.4c0.7,1.5-0.3,3.8-0.5,5.8
		c-0.5,0-1,0.1-1.6,0.1c2.2,3.4,4.3,7,6.8,10.3c8.5,11.3,17.5,22.2,25.6,33.7c4.7,6.7,8.2,14.3,12.5,22c4.8-0.2,16.5-8.8,17.8-14.5
		c0.4-1.9-0.1-4.3-1-6.1c-15.6-32.7-28-66.5-38.3-101.2c-3-10.2-7.4-19.9-11.5-29.8c-1-2.5-3.2-4.6-4.8-6.9c-1.8-2.5-1.6-4.5,2-6.4
		c0.8,2.8,1.5,5.4,2.5,9c0.8-2.7,1.3-4.6,1.9-6.4c0.5-0.2,1-0.5,1.5-0.7c2.3,2.8,5.5,5.3,6.8,8.5c2.8,7.3,4.6,14.9,6.8,22.4
		c1.8,6.4,3.6,12.7,5.3,19.1c1.2,4.6,3.6,9.4,3.2,13.9c-1.3,14.5,9.3,23.6,14.5,35.1c2,4.4,4.4,8.7,5.5,13.3
		c0.9,3.7,0.2,7.8,0.4,11.7c0,1,0.3,1.9,0.6,3.8c4.2-0.9,8.2-1.8,12.2-2.7c3-0.7,5.3-0.3,5.3,2.9c-4.7,2-9.1,3.9-13.5,5.7
		c0.1,0.7,0.3,1.5,0.4,2.2c2,0,4.1,0.3,6-0.1c1.7-0.3,3.3-1.4,5-2.2c3.7-1.7,6.1-0.7,7,3.8c-2.2,1-4.6,1.7-6.7,2.9
		c-2.7,1.5-3.5,2.8-1,6.1c5.1,6.8,13.4,8.3,19.6,13.2c3.9,3.2,8.5,5.7,12.2,9.1c1.6,1.5,2,4.4,2.6,6.8c0.7,2.7,1,5.4,1.7,9.6
		c-11.8-9.2-26-12.8-35.2-24.3c-4.3,5.2-8.5,10.3-13.2,15.9c4.7,3,9.3,5.9,13.9,8.9c0.4-0.3,0.9-0.6,1.3-1
		C233.6,606.9,233,608.7,232.4,610.4z M228.8,646.1c5.3-3.6,10.3-6.9,15.5-10.5c-0.9-2.9-1.9-6.2-3.3-10.9
		C235.7,632.2,225.6,634.6,228.8,646.1z M227.2,573.3c-0.6-0.3-1.2-0.5-1.8-0.8c-6.2,9.6-13.9,17.2-24.9,20.9
		c9.5-0.8,17.5-5.1,24.1-11.6C226.5,580,226.4,576.2,227.2,573.3z"/>
	<path d="M497.4,434c2-6.9,5.3-12.1,12.4-10.9c-1.8,7.2-3.6,14.5-5.6,22.2c-18.4-9.7-36.9-13.4-56.6-10.2c3.2-1.1,6.4-3.2,9.7-3.2
		c5.5-0.1,3.6-3.2,3.7-7.1c-3.9,2.5-7.1,4.6-10.3,6.6c1.5-6.7,7.2-6.4,11.6-8.5c1,2.5,2,4.9,3,7.3c0.6-0.2,1.2-0.3,1.7-0.5
		c-0.3-2.1-0.5-4.2-0.8-7c1.5-0.2,3-0.4,4.5-0.6c0.1,0.3,0.2,0.5,0.3,0.8c-1,0.7-1.9,1.4-3.6,2.5c1.7,1.2,2.9,2,4.2,2.9
		c1-1.6,2-3.2,3.2-5.1c0.7,0.6,2,1.6,3.2,2.6c0.2-0.1,0.5-0.2,0.7-0.4c-0.6-1.3-1.2-2.7-1.8-4c1.5-0.5,3-1.1,5.4-1.9
		c-0.5,4.9-0.9,9.4-1.3,13.8c4.2-5.9,5.7-14.6,16.1-12.3c-0.3,3.8-0.6,8-1,12.2C496.5,433.4,497,433.7,497.4,434z"/>
	<path d="M264.7,682.3c-3.5,0.5-4.9-1.2-4.7-4.1c0.4-9,0.2-18.2,1.8-27.1c1.2-6.5,4.8-12.5,7.6-19.4
		C277,649.9,267.3,665.7,264.7,682.3z"/>
	<path d="M207.8,162.6c1.8,0.2,3.8,0.1,5.5,0.8c3.1,1.2,5.1,0.5,6.4-2.6c0.6-1.3,1.3-2.9,2.5-3.6c0.9-0.6,2.6-0.3,3.9-0.3
		c0,1.3,0.5,3.2-0.2,3.7c-6,4.8-5.2,10-2.8,16.5c2.3,6.3,2.9,13.2,3.7,19.9c0.2,1.3-1.7,3.9-3,4.2c-4.6,1-9.4,1.3-15.5,2
		c0.5-4.5,0.6-8.8,1.5-12.9c0.3-1.3,2.6-2.9,4.1-3c6-0.2,6.8-4.3,7.2-8.8c0.3-3.8-4.6-9.9-8-11c-1.9-0.6-3.6-2.1-5.4-3.1
		C207.8,163.7,207.8,163.1,207.8,162.6z M215.2,195.1c3.5,0,6,0,8.4,0c-1.4-2.1-2.8-4.3-4.8-7.4
		C217.3,190.8,216.6,192.2,215.2,195.1z"/>
	<path d="M204.5,203.8c1.5,3.4,2.6,5.8,4.2,9.6c-2.8-0.4-5-0.4-6.8-1.2c-1.4-0.5-2.3-2-3.5-3.1C200.3,207.5,202.2,205.8,204.5,203.8
		z"/>
	<path d="M183.2,195.2c0.6-5.1,1-9.2,1.6-13.9c0.6,0.5,2.7,1.7,2.7,2.7C187.1,187.7,188.1,192.1,183.2,195.2z"/>
	<path d="M532.9,278.9c1.6,4.3,3.3,8.5,4.9,12.8c-0.7,0.3-1.4,0.6-2.1,0.9c-1.7-4.2-3.5-8.5-5.2-12.7
		C531.3,279.6,532.1,279.2,532.9,278.9z"/>
	<path d="M147.6,297.9c-1,5.8-2,11.6-3.1,17.4c-0.6-0.1-1.2-0.2-1.8-0.3c1-5.8,2-11.5,2.9-17.3C146.3,297.8,146.9,297.9,147.6,297.9
		z"/>
	<path d="M126.9,285.2c1.1,4,2.2,8,3.2,11.9c-0.7,0.2-1.3,0.4-2,0.5c-1.1-4-2.3-8-3.4-12C125.5,285.5,126.2,285.4,126.9,285.2z"/>
	<path d="M104.8,217.1c-2.6-1.5-5.3-2.9-7.9-4.4c0.3-0.6,0.7-1.2,1-1.8c2.7,1.4,5.3,2.9,8,4.3C105.5,215.9,105.2,216.5,104.8,217.1z
		"/>
	<path d="M664.9,414.3c-0.7-0.3-2.1-0.5-2.1-0.7c0.2-5.7-4.5-2.6-6.7-3.7c-5-2.4-10-5-15.2-7.1c-1.8-0.7-4.1-0.1-7.1-0.1
		c3.3-6.9,6.4-12.9,9.1-18.9c0.5-1.2-0.1-2.8-0.3-5.3c8.2,12.2,15.8,23.5,23.5,34.9C665.6,413.6,665.2,413.9,664.9,414.3z"/>
	<path d="M624.2,323.2c0.1-1.9,0.3-3.8,0.4-6.6c-1.2,1.9-1.9,3-3.5,5.5c0-10,0-18.6,0-27.1c0.4,0.1,1.2,0.2,2.8,0.4
		c-1.2-2.4-2.1-4.2-3.1-6.4c5,2.1,5.4,5.8,1.5,10.7c3,3,5.8,6.1,1.6,10.4c-0.4,0.4,0.4,2.3,0.9,3.4c1.3,3.3,2.5,6.6-0.7,9.6
		L624.2,323.2z"/>
	<path d="M603.5,247.2c1.9,3.7,3.6,5.9,4.1,8.3c0.4,1.6-0.8,3.6-1.3,5.5c-1.8-1.4-4.9-2.7-5.1-4.3
		C600.9,254,602.4,251.1,603.5,247.2z"/>
	<path d="M624.1,323c-0.5,3.2-0.9,6.3-1.4,9.5c0.3,0.1,0.7,0.2,1,0.2c0.6-1.4,1.1-2.8,1.7-4.2c0.4,0.1,0.7,0.2,1.1,0.3
		c-0.7,2.1-1.3,4.2-2.3,6.1c-0.2,0.3-3.2-0.2-3.4-0.8c-0.7-2.8-1.3-5.7-0.9-8.4c0.1-1,2.8-1.7,4.3-2.6
		C624.2,323.2,624.1,323,624.1,323z"/>
	<path d="M614.7,275.5c2.1,0.1,5.5-0.4,6.1,0.6c1.3,2.3,1.1,5.4,1.6,8.5c-6.6-0.9-6.7-5.3-7.5-9.2
		C614.8,275.3,614.7,275.5,614.7,275.5z"/>
	<path d="M613.9,358c5.1-2.6,1.2-7,2-10.5c1.5,1.9,3.1,3.8,4.5,5.8c2.4,3.4,2.4,5.7-0.3,9.5c0-2.8,0-4.7,0-7
		c-2.1,2.1-3.7,3.8-5.6,5.7C614.3,360.1,614.1,359.1,613.9,358z"/>
	<path d="M689.3,396.1c-4.2,1.5-8.3,3-12.7,4.6C677.8,396.6,680,395.7,689.3,396.1z"/>
	<path d="M613.3,363.6c3.1,1.9,7.5,2.7,7.1,8.6c-3.2-2.7-5.8-5-8.4-7.2C612.4,364.6,612.8,364.1,613.3,363.6z"/>
	<path d="M619.2,263.1c-0.5,1.5-1,3.1-1.6,4.6c-0.5,0.2-1.1,0.4-1.6,0.6c-1.8-2.9-3.7-5.8-5.5-8.7c0.6-0.4,1.2-0.8,1.8-1.1
		c1.1,2.3,2.3,4.6,3.7,7.6c0.9-1.7,1.4-2.6,1.8-3.5C618.3,262.8,618.7,262.9,619.2,263.1z"/>
	<path d="M611.3,252c-0.3-0.9-0.6-1.8-1-3.1c-1,0.7-2,1.3-3.9,2.6c0.8-2.9,1.3-4.9,2-6.9c0,0,1.4,0.1,1.6,0.4c1.2,2,2.3,4.2,3.4,6.3
		C612.6,251.5,611.9,251.8,611.3,252z"/>
	<path d="M601.9,231.6c1,2.2,2.1,4.5,3.4,7.5c-1-0.2-2.5-0.1-3.1-0.8C599.9,235.8,599.9,234,601.9,231.6z"/>
	<path d="M152,153.7c2.2-1.4,3.7-2.4,5.3-3.4c-1.2,5.4-2.4,10.5-3.8,16.6c-1.2-1.3-1.9-2.2-2.7-3c-1.8-1.6-3.7-3-5.6-4.6
		c-1.5-1.2-2.9-2.4-4.4-3.6c1.1-1.3,2.1-2.9,3.4-3.9c1.7-1.2,3.8-1.9,5.1-2.6c0.6-2.6,1.3-4.8,1.6-7.1c0.2-1.2,0.3-3.1-0.3-3.5
		c-0.9-0.5-3-0.5-3.6,0.2c-3.5,4.1-7.4,8.2-10,12.9c-2.2,4,0.1,6.9,7,10.7c-1.6,1.8-3.1,3.6-4.5,5.3c-1.4-1.8-3.6-3.4-4.2-5.5
		c-2.5-9-1.4-17.5,5.5-24.5c3.8-3.8,9.8-3.6,13.3,0.3c1.9,2.1,3,4.1,1,7.1C153.8,147.4,153.3,150.3,152,153.7z"/>
</g>
</svg>
