<?xml version="1.0" encoding="utf-8"?>
<!-- Generator: Adobe Illustrator 21.0.0, SVG Export Plug-In . SVG Version: 6.00 Build 0)  -->
<svg version="1.1" id="Capa_1" xmlns="http://www.w3.org/2000/svg" xmlns:xlink="http://www.w3.org/1999/xlink" x="0px" y="0px"
	 viewBox="0 0 500 500" style="enable-background:new 0 0 500 500;" xml:space="preserve">
<g>
	<path d="M250.7,176c-52.5,0-105,0-157.5,0c-11.1,0-15.3-3.2-16.6-14.2c-0.8-7.2-0.8-14.7,0-21.9C78,129.2,82.3,126,93.1,126
		c98.5,0,196.9,0,295.4,0c7.5,0,15-0.1,22.5,0c8.2,0.1,13.1,3.7,13.9,12c0.8,8.2,0.9,16.6,0.2,24.8c-0.9,9.8-5.5,13.2-15.3,13.2
		C356.7,176,303.7,176,250.7,176z"/>
	<path d="M251.3,226c52.5,0,105,0,157.5,0c11.1,0,15.3,3.2,16.5,14.2c0.8,7.4,0.7,15-0.1,22.4c-1.1,10.1-5.5,13.4-15.7,13.4
		c-77,0-154,0-230.9,0c-28.5,0-57,0-85.5,0c-10.8,0-15.1-3.2-16.2-14c-0.8-7.5-0.7-15.3,0.1-22.9c1.1-9.8,5.6-13.2,15.4-13.2
		C145.3,226,198.3,226,251.3,226z"/>
	<path d="M250.8,376c-52.5,0-105,0-157.5,0c-11.1,0-15.3-3.2-16.6-14.2c-0.8-7.2-0.8-14.7,0-21.9C78,329.2,82.3,326,93,326
		c96,0,191.9,0,287.9,0c9.8,0,19.7,0,29.5,0c8.8,0,13.6,3.6,14.5,12.4c0.8,8.1,0.9,16.3,0.1,24.3c-0.9,9.8-5.5,13.2-15.3,13.2
		C356.7,376,303.7,376,250.8,376z"/>
</g>
</svg>
